{
    "asset" : {
        "generator" : "Khronos glTF Blender I/O v1.4.40",
        "version" : "2.0"
    },
    "scene" : 0,
    "scenes" : [
        {
            "name" : "Scene",
            "nodes" : [
                0,
                1,
                2,
                3,
                4,
                5,
                6,
                7,
                8
            ]
        }
    ],
    "nodes" : [
        {
            "name" : "Light",
            "rotation" : [
                0.16907575726509094,
                0.7558803558349609,
                -0.27217137813568115,
                0.570947527885437
            ],
            "translation" : [
                4.076245307922363,
                5.903861999511719,
                -1.0054539442062378
            ]
        },
        {
            "name" : "Camera",
            "rotation" : [
                0.483536034822464,
                0.33687159419059753,
                -0.20870360732078552,
                0.7804827094078064
            ],
            "translation" : [
                7.358891487121582,
                4.958309173583984,
                6.925790786743164
            ]
        },
        {
            "mesh" : 0,
            "name" : "Cylinder"
        },
        {
            "mesh" : 1,
            "name" : "Cylinder.001",
            "scale" : [
                1.6011091470718384,
                1,
                1.6011091470718384
            ],
            "translation" : [
                0,
                1.8203471899032593,
                0
            ]
        },
        {
            "mesh" : 2,
            "name" : "Cylinder.002",
            "rotation" : [
                -0.04478778690099716,
                -0.015584290958940983,
                0.00271640345454216,
                0.9988712668418884
            ],
            "scale" : [
                1.494545578956604,
                0.9334439039230347,
                1.4945456981658936
            ],
            "translation" : [
                0,
                2.756938934326172,
                0
            ]
        },
        {
            "mesh" : 3,
            "name" : "Cylinder.003",
            "rotation" : [
                0.008114151656627655,
                -0.02412007376551628,
                -0.0025710018817335367,
                0.9996728301048279
            ],
            "scale" : [
                1.3227100372314453,
                0.8261211514472961,
                1.3227101564407349
            ],
            "translation" : [
                0,
                3.7167019844055176,
                0
            ]
        },
        {
            "mesh" : 4,
            "name" : "Cylinder.004",
            "rotation" : [
                0.01676439866423607,
                -0.024710804224014282,
                -0.006097186356782913,
                0.9995354413986206
            ],
            "scale" : [
                1.1746443510055542,
                0.7336440682411194,
                1.1746443510055542
            ],
            "translation" : [
                0,
                4.551933288574219,
                0
            ]
        },
        {
            "mesh" : 5,
            "name" : "Cylinder.005",
            "rotation" : [
                -0.007265292573720217,
                -0.019545361399650574,
                0.011773421429097652,
                0.9997132420539856
            ],
            "scale" : [
                0.7992120385169983,
                0.4991613030433655,
                0.7992119789123535
            ],
            "translation" : [
                0,
                5.368905544281006,
                0
            ]
        },
        {
            "mesh" : 6,
            "name" : "Cylinder.006",
            "rotation" : [
                0.017540981993079185,
                -0.02031043730676174,
                0.03095819614827633,
                0.9991603493690491
            ],
            "scale" : [
                0.4976571500301361,
                0.310820072889328,
                0.4976571500301361
            ],
            "translation" : [
                -0.026934893801808357,
                5.981717586517334,
                0.05687050521373749
            ]
        }
    ],
    "materials" : [
        {
            "doubleSided" : true,
            "name" : "stam",
            "pbrMetallicRoughness" : {
                "baseColorFactor" : [
                    0.26668044924736023,
                    0.11336538195610046,
                    0.04796737805008888,
                    1
                ],
                "metallicFactor" : 0,
                "roughnessFactor" : 0.5
            }
        },
        {
            "doubleSided" : true,
            "name" : "Material.001",
            "pbrMetallicRoughness" : {
                "baseColorFactor" : [
                    0.018500182777643204,
                    0.3005438446998596,
                    0.04666510596871376,
                    1
                ],
                "metallicFactor" : 0
            }
        },
        {
            "doubleSided" : true,
            "name" : "Material.002",
            "pbrMetallicRoughness" : {
                "baseColorFactor" : [
                    0.018500182777643204,
                    0.3005438446998596,
                    0.04666510596871376,
                    1
                ],
                "metallicFactor" : 0
            }
        },
        {
            "doubleSided" : true,
            "name" : "Material.003",
            "pbrMetallicRoughness" : {
                "baseColorFactor" : [
                    0.018500182777643204,
                    0.3005438446998596,
                    0.04666510596871376,
                    1
                ],
                "metallicFactor" : 0
            }
        },
        {
            "doubleSided" : true,
            "name" : "Material.004",
            "pbrMetallicRoughness" : {
                "baseColorFactor" : [
                    0.018500182777643204,
                    0.3005438446998596,
                    0.04666510596871376,
                    1
                ],
                "metallicFactor" : 0
            }
        },
        {
            "doubleSided" : true,
            "name" : "Material.005",
            "pbrMetallicRoughness" : {
                "baseColorFactor" : [
                    0.018500182777643204,
                    0.3005438446998596,
                    0.04666510596871376,
                    1
                ],
                "metallicFactor" : 0
            }
        },
        {
            "doubleSided" : true,
            "name" : "Material.006",
            "pbrMetallicRoughness" : {
                "baseColorFactor" : [
                    0.018500182777643204,
                    0.3005438446998596,
                    0.04666510596871376,
                    1
                ],
                "metallicFactor" : 0
            }
        }
    ],
    "meshes" : [
        {
            "name" : "Cylinder",
            "primitives" : [
                {
                    "attributes" : {
                        "POSITION" : 0,
                        "NORMAL" : 1,
                        "TEXCOORD_0" : 2
                    },
                    "indices" : 3,
                    "material" : 0
                }
            ]
        },
        {
            "name" : "Cylinder.001",
            "primitives" : [
                {
                    "attributes" : {
                        "POSITION" : 4,
                        "NORMAL" : 5,
                        "TEXCOORD_0" : 6
                    },
                    "indices" : 7,
                    "material" : 1
                }
            ]
        },
        {
            "name" : "Cylinder.002",
            "primitives" : [
                {
                    "attributes" : {
                        "POSITION" : 8,
                        "NORMAL" : 9,
                        "TEXCOORD_0" : 10
                    },
                    "indices" : 7,
                    "material" : 2
                }
            ]
        },
        {
            "name" : "Cylinder.003",
            "primitives" : [
                {
                    "attributes" : {
                        "POSITION" : 11,
                        "NORMAL" : 12,
                        "TEXCOORD_0" : 13
                    },
                    "indices" : 7,
                    "material" : 3
                }
            ]
        },
        {
            "name" : "Cylinder.004",
            "primitives" : [
                {
                    "attributes" : {
                        "POSITION" : 14,
                        "NORMAL" : 15,
                        "TEXCOORD_0" : 16
                    },
                    "indices" : 7,
                    "material" : 4
                }
            ]
        },
        {
            "name" : "Cylinder.005",
            "primitives" : [
                {
                    "attributes" : {
                        "POSITION" : 17,
                        "NORMAL" : 18,
                        "TEXCOORD_0" : 19
                    },
                    "indices" : 7,
                    "material" : 5
                }
            ]
        },
        {
            "name" : "Cylinder.006",
            "primitives" : [
                {
                    "attributes" : {
                        "POSITION" : 20,
                        "NORMAL" : 21,
                        "TEXCOORD_0" : 22
                    },
                    "indices" : 7,
                    "material" : 6
                }
            ]
        }
    ],
    "accessors" : [
        {
            "bufferView" : 0,
            "componentType" : 5126,
            "count" : 36,
            "max" : [
                0.866025447845459,
                1,
                1
            ],
            "min" : [
                -0.866025447845459,
                -1,
                -1
            ],
            "type" : "VEC3"
        },
        {
            "bufferView" : 1,
            "componentType" : 5126,
            "count" : 36,
            "type" : "VEC3"
        },
        {
            "bufferView" : 2,
            "componentType" : 5126,
            "count" : 36,
            "type" : "VEC2"
        },
        {
            "bufferView" : 3,
            "componentType" : 5123,
            "count" : 60,
            "type" : "SCALAR"
        },
        {
            "bufferView" : 4,
            "componentType" : 5126,
            "count" : 72,
            "max" : [
                1.069746732711792,
                1,
                1.2352370023727417
            ],
            "min" : [
                -1.069746732711792,
                -1,
                -1.2352370023727417
            ],
            "type" : "VEC3"
        },
        {
            "bufferView" : 5,
            "componentType" : 5126,
            "count" : 72,
            "type" : "VEC3"
        },
        {
            "bufferView" : 6,
            "componentType" : 5126,
            "count" : 72,
            "type" : "VEC2"
        },
        {
            "bufferView" : 7,
            "componentType" : 5123,
            "count" : 132,
            "type" : "SCALAR"
        },
        {
            "bufferView" : 8,
            "componentType" : 5126,
            "count" : 72,
            "max" : [
                1.069746732711792,
                0.9999999403953552,
                1.2352370023727417
            ],
            "min" : [
                -1.069746732711792,
                -1,
                -1.2352370023727417
            ],
            "type" : "VEC3"
        },
        {
            "bufferView" : 9,
            "componentType" : 5126,
            "count" : 72,
            "type" : "VEC3"
        },
        {
            "bufferView" : 10,
            "componentType" : 5126,
            "count" : 72,
            "type" : "VEC2"
        },
        {
            "bufferView" : 11,
            "componentType" : 5126,
            "count" : 72,
            "max" : [
                1.069746732711792,
                0.9999999403953552,
                1.2352370023727417
            ],
            "min" : [
                -1.069746732711792,
                -1,
                -1.2352370023727417
            ],
            "type" : "VEC3"
        },
        {
            "bufferView" : 12,
            "componentType" : 5126,
            "count" : 72,
            "type" : "VEC3"
        },
        {
            "bufferView" : 13,
            "componentType" : 5126,
            "count" : 72,
            "type" : "VEC2"
        },
        {
            "bufferView" : 14,
            "componentType" : 5126,
            "count" : 72,
            "max" : [
                1.069746732711792,
                0.9999999403953552,
                1.2352370023727417
            ],
            "min" : [
                -1.069746732711792,
                -1,
                -1.2352370023727417
            ],
            "type" : "VEC3"
        },
        {
            "bufferView" : 15,
            "componentType" : 5126,
            "count" : 72,
            "type" : "VEC3"
        },
        {
            "bufferView" : 16,
            "componentType" : 5126,
            "count" : 72,
            "type" : "VEC2"
        },
        {
            "bufferView" : 17,
            "componentType" : 5126,
            "count" : 72,
            "max" : [
                1.069746732711792,
                0.9999999403953552,
                1.2352370023727417
            ],
            "min" : [
                -1.069746732711792,
                -1,
                -1.2352370023727417
            ],
            "type" : "VEC3"
        },
        {
            "bufferView" : 18,
            "componentType" : 5126,
            "count" : 72,
            "type" : "VEC3"
        },
        {
            "bufferView" : 19,
            "componentType" : 5126,
            "count" : 72,
            "type" : "VEC2"
        },
        {
            "bufferView" : 20,
            "componentType" : 5126,
            "count" : 72,
            "max" : [
                1.069746732711792,
                0.9999999403953552,
                1.2352370023727417
            ],
            "min" : [
                -1.069746732711792,
                -1,
                -1.2352370023727417
            ],
            "type" : "VEC3"
        },
        {
            "bufferView" : 21,
            "componentType" : 5126,
            "count" : 72,
            "type" : "VEC3"
        },
        {
            "bufferView" : 22,
            "componentType" : 5126,
            "count" : 72,
            "type" : "VEC2"
        }
    ],
    "bufferViews" : [
        {
            "buffer" : 0,
            "byteLength" : 432,
            "byteOffset" : 0
        },
        {
            "buffer" : 0,
            "byteLength" : 432,
            "byteOffset" : 432
        },
        {
            "buffer" : 0,
            "byteLength" : 288,
            "byteOffset" : 864
        },
        {
            "buffer" : 0,
            "byteLength" : 120,
            "byteOffset" : 1152
        },
        {
            "buffer" : 0,
            "byteLength" : 864,
            "byteOffset" : 1272
        },
        {
            "buffer" : 0,
            "byteLength" : 864,
            "byteOffset" : 2136
        },
        {
            "buffer" : 0,
            "byteLength" : 576,
            "byteOffset" : 3000
        },
        {
            "buffer" : 0,
            "byteLength" : 264,
            "byteOffset" : 3576
        },
        {
            "buffer" : 0,
            "byteLength" : 864,
            "byteOffset" : 3840
        },
        {
            "buffer" : 0,
            "byteLength" : 864,
            "byteOffset" : 4704
        },
        {
            "buffer" : 0,
            "byteLength" : 576,
            "byteOffset" : 5568
        },
        {
            "buffer" : 0,
            "byteLength" : 864,
            "byteOffset" : 6144
        },
        {
            "buffer" : 0,
            "byteLength" : 864,
            "byteOffset" : 7008
        },
        {
            "buffer" : 0,
            "byteLength" : 576,
            "byteOffset" : 7872
        },
        {
            "buffer" : 0,
            "byteLength" : 864,
            "byteOffset" : 8448
        },
        {
            "buffer" : 0,
            "byteLength" : 864,
            "byteOffset" : 9312
        },
        {
            "buffer" : 0,
            "byteLength" : 576,
            "byteOffset" : 10176
        },
        {
            "buffer" : 0,
            "byteLength" : 864,
            "byteOffset" : 10752
        },
        {
            "buffer" : 0,
            "byteLength" : 864,
            "byteOffset" : 11616
        },
        {
            "buffer" : 0,
            "byteLength" : 576,
            "byteOffset" : 12480
        },
        {
            "buffer" : 0,
            "byteLength" : 864,
            "byteOffset" : 13056
        },
        {
            "buffer" : 0,
            "byteLength" : 864,
            "byteOffset" : 13920
        },
        {
            "buffer" : 0,
            "byteLength" : 576,
            "byteOffset" : 14784
        }
    ],
    "buffers" : [
        {
            "byteLength" : 15360,
            "uri" : "data:application/octet-stream;base64,"
        }
    ]
}
