{
    "asset" : {
        "generator" : "Khronos glTF Blender I/O v1.4.40",
        "version" : "2.0"
    },
    "scene" : 0,
    "scenes" : [
        {
            "name" : "Scene",
            "nodes" : [
                0,
                1,
                2
            ]
        }
    ],
    "nodes" : [
        {
            "mesh" : 0,
            "name" : "Sphere",
            "scale" : [
                15,
                15,
                15
            ]
        },
        {
            "name" : "Point",
            "scale" : [
                5,
                5,
                5
            ],
            "translation" : [
                11.879252433776855,
                16.08693504333496,
                -9.921051979064941
            ]
        },
        {
            "name" : "Camera",
            "rotation" : [
                0.06395452469587326,
                0.7304569482803345,
                -0.6764400005340576,
                0.0690751001238823
            ],
            "scale" : [
                5.000000476837158,
                5,
                5.000000476837158
            ],
            "translation" : [
                32.26961898803711,
                12.493569374084473,
                -165.69186401367188
            ]
        }
    ],
    "materials" : [
        {
            "doubleSided" : true,
            "name" : "Material.004",
            "pbrMetallicRoughness" : {
                "baseColorFactor" : [
                    0.800000011920929,
                    0.800000011920929,
                    0.800000011920929,
                    1
                ],
                "metallicFactor" : 0,
                "roughnessFactor" : 0
            }
        }
    ],
    "meshes" : [
        {
            "name" : "Sphere.001",
            "primitives" : [
                {
                    "attributes" : {
                        "POSITION" : 0,
                        "NORMAL" : 1,
                        "TEXCOORD_0" : 2
                    },
                    "indices" : 3,
                    "material" : 0
                }
            ]
        }
    ],
    "accessors" : [
        {
            "bufferView" : 0,
            "componentType" : 5126,
            "count" : 2954,
            "max" : [
                1.0462186336517334,
                1.0653856992721558,
                1.0462188720703125
            ],
            "min" : [
                -1.0462182760238647,
                7.549790126404332e-08,
                -1.3989965915679932
            ],
            "type" : "VEC3"
        },
        {
            "bufferView" : 1,
            "componentType" : 5126,
            "count" : 2954,
            "type" : "VEC3"
        },
        {
            "bufferView" : 2,
            "componentType" : 5126,
            "count" : 2954,
            "type" : "VEC2"
        },
        {
            "bufferView" : 3,
            "componentType" : 5123,
            "count" : 5418,
            "type" : "SCALAR"
        }
    ],
    "bufferViews" : [
        {
            "buffer" : 0,
            "byteLength" : 35448,
            "byteOffset" : 0
        },
        {
            "buffer" : 0,
            "byteLength" : 35448,
            "byteOffset" : 35448
        },
        {
            "buffer" : 0,
            "byteLength" : 23632,
            "byteOffset" : 70896
        },
        {
            "buffer" : 0,
            "byteLength" : 10836,
            "byteOffset" : 94528
        }
    ],
    "buffers" : [
        {
            "byteLength" : 105364,
            "uri" : "data:application/octet-stream;base64,"
        }
    ]
}
