{
    "asset" : {
        "generator" : "Khronos glTF Blender I/O v1.4.40",
        "version" : "2.0"
    },
    "scene" : 0,
    "scenes" : [
        {
            "name" : "Scene",
            "nodes" : [
                0,
                1,
                2,
                3,
                4,
                5,
                6
            ]
        }
    ],
    "nodes" : [
        {
            "mesh" : 0,
            "name" : "Cube.001",
            "rotation" : [
                -0.09207334369421005,
                0.5642797946929932,
                0.8186395764350891,
                0.05422235280275345
            ],
            "scale" : [
                1.575857162475586,
                1.1722689867019653,
                1.0829306840896606
            ],
            "translation" : [
                1.685044765472412,
                -0.2804841995239258,
                0.7717163562774658
            ]
        },
        {
            "mesh" : 1,
            "name" : "Cube.002",
            "rotation" : [
                0.3371337056159973,
                0.07804007828235626,
                -0.35940659046173096,
                -0.8666473031044006
            ],
            "scale" : [
                -1.5984444618225098,
                -1.5984442234039307,
                -1.5984439849853516
            ],
            "translation" : [
                0.41117388010025024,
                0,
                0
            ]
        },
        {
            "mesh" : 2,
            "name" : "Cube.003",
            "rotation" : [
                -0.00948976818472147,
                0.7099757790565491,
                -0.7039672136306763,
                -0.016569383442401886
            ],
            "scale" : [
                -1.0575834512710571,
                1.107282042503357,
                1.1160727739334106
            ],
            "translation" : [
                2.6218044757843018,
                -0.0634050965309143,
                -0.08405053615570068
            ]
        },
        {
            "mesh" : 3,
            "name" : "Cube.004",
            "rotation" : [
                0.8566038012504578,
                0.4424116909503937,
                -0.2513832151889801,
                -0.08548879623413086
            ],
            "scale" : [
                -0.7198219299316406,
                -0.7228417992591858,
                -0.4905226528644562
            ],
            "translation" : [
                1.8012986183166504,
                0.7180076837539673,
                0.08467118442058563
            ]
        },
        {
            "mesh" : 4,
            "name" : "Cube.006",
            "rotation" : [
                0.7252228260040283,
                0.10275793075561523,
                -0.6779948472976685,
                0.06177082657814026
            ],
            "scale" : [
                1.200085997581482,
                0.8927354216575623,
                0.8247002959251404
            ],
            "translation" : [
                0.26320651173591614,
                -0.09086170792579651,
                -1.61759352684021
            ]
        },
        {
            "mesh" : 5,
            "name" : "Cube.005",
            "rotation" : [
                -0.010417526587843895,
                0.8334172368049622,
                -0.46792519092559814,
                -0.2938595414161682
            ],
            "scale" : [
                -1.0891222953796387,
                1.140303134918213,
                1.1493557691574097
            ],
            "translation" : [
                1.6813971996307373,
                -0.08709171414375305,
                -1.4937689304351807
            ]
        },
        {
            "mesh" : 6,
            "name" : "Cube.007",
            "rotation" : [
                0.1995687037706375,
                -0.20919901132583618,
                -0.7093831300735474,
                -0.6427937746047974
            ],
            "scale" : [
                -0.7198219299316406,
                -0.7228417992591858,
                -0.4905226528644562
            ],
            "translation" : [
                1.7539507150650024,
                0.7743809223175049,
                -0.752124547958374
            ]
        }
    ],
    "materials" : [
        {
            "doubleSided" : true,
            "name" : "Material.002",
            "pbrMetallicRoughness" : {
                "baseColorFactor" : [
                    0.307972252368927,
                    0.1704876869916916,
                    0.07764746993780136,
                    1
                ],
                "metallicFactor" : 0
            }
        },
        {
            "doubleSided" : true,
            "name" : "Material.005",
            "pbrMetallicRoughness" : {
                "baseColorFactor" : [
                    0.43419045209884644,
                    0.23836630582809448,
                    0.10696464031934738,
                    1
                ],
                "metallicFactor" : 0
            }
        },
        {
            "doubleSided" : true,
            "name" : "Material.004",
            "pbrMetallicRoughness" : {
                "baseColorFactor" : [
                    0.3509580194950104,
                    0.19364355504512787,
                    0.08767952024936676,
                    1
                ],
                "metallicFactor" : 0
            }
        },
        {
            "doubleSided" : true,
            "name" : "Material.003",
            "pbrMetallicRoughness" : {
                "baseColorFactor" : [
                    0.29773470759391785,
                    0.16496601700782776,
                    0.07525012642145157,
                    1
                ],
                "metallicFactor" : 0
            }
        },
        {
            "doubleSided" : true,
            "name" : "Material.007",
            "pbrMetallicRoughness" : {
                "baseColorFactor" : [
                    0.3277781903743744,
                    0.18116426467895508,
                    0.08228272199630737,
                    1
                ],
                "metallicFactor" : 0
            }
        },
        {
            "doubleSided" : true,
            "name" : "Material.008",
            "pbrMetallicRoughness" : {
                "baseColorFactor" : [
                    0.3509580194950104,
                    0.19364355504512787,
                    0.08767952024936676,
                    1
                ],
                "metallicFactor" : 0
            }
        },
        {
            "doubleSided" : true,
            "name" : "Material.009",
            "pbrMetallicRoughness" : {
                "baseColorFactor" : [
                    0.29773470759391785,
                    0.16496601700782776,
                    0.07525012642145157,
                    1
                ],
                "metallicFactor" : 0
            }
        }
    ],
    "meshes" : [
        {
            "name" : "Cube.002",
            "primitives" : [
                {
                    "attributes" : {
                        "POSITION" : 0,
                        "NORMAL" : 1,
                        "TEXCOORD_0" : 2
                    },
                    "indices" : 3,
                    "material" : 0
                }
            ]
        },
        {
            "name" : "Cube.003",
            "primitives" : [
                {
                    "attributes" : {
                        "POSITION" : 4,
                        "NORMAL" : 5,
                        "TEXCOORD_0" : 6
                    },
                    "indices" : 3,
                    "material" : 1
                }
            ]
        },
        {
            "name" : "Cube.004",
            "primitives" : [
                {
                    "attributes" : {
                        "POSITION" : 7,
                        "NORMAL" : 8,
                        "TEXCOORD_0" : 9
                    },
                    "indices" : 3,
                    "material" : 2
                }
            ]
        },
        {
            "name" : "Cube.006",
            "primitives" : [
                {
                    "attributes" : {
                        "POSITION" : 10,
                        "NORMAL" : 11,
                        "TEXCOORD_0" : 12
                    },
                    "indices" : 3,
                    "material" : 3
                }
            ]
        },
        {
            "name" : "Cube.008",
            "primitives" : [
                {
                    "attributes" : {
                        "POSITION" : 13,
                        "NORMAL" : 14,
                        "TEXCOORD_0" : 15
                    },
                    "indices" : 3,
                    "material" : 4
                }
            ]
        },
        {
            "name" : "Cube.001",
            "primitives" : [
                {
                    "attributes" : {
                        "POSITION" : 16,
                        "NORMAL" : 17,
                        "TEXCOORD_0" : 18
                    },
                    "indices" : 3,
                    "material" : 5
                }
            ]
        },
        {
            "name" : "Cube.005",
            "primitives" : [
                {
                    "attributes" : {
                        "POSITION" : 19,
                        "NORMAL" : 20,
                        "TEXCOORD_0" : 21
                    },
                    "indices" : 3,
                    "material" : 6
                }
            ]
        }
    ],
    "accessors" : [
        {
            "bufferView" : 0,
            "componentType" : 5126,
            "count" : 368,
            "max" : [
                0.8333926796913147,
                0.9719568490982056,
                0.9496399760246277
            ],
            "min" : [
                -0.8547500967979431,
                -0.9491767883300781,
                -0.8107727766036987
            ],
            "type" : "VEC3"
        },
        {
            "bufferView" : 1,
            "componentType" : 5126,
            "count" : 368,
            "type" : "VEC3"
        },
        {
            "bufferView" : 2,
            "componentType" : 5126,
            "count" : 368,
            "type" : "VEC2"
        },
        {
            "bufferView" : 3,
            "componentType" : 5123,
            "count" : 432,
            "type" : "SCALAR"
        },
        {
            "bufferView" : 4,
            "componentType" : 5126,
            "count" : 368,
            "max" : [
                0.8333926796913147,
                0.9719568490982056,
                0.9496399760246277
            ],
            "min" : [
                -0.8547500967979431,
                -0.9491767883300781,
                -0.8107727766036987
            ],
            "type" : "VEC3"
        },
        {
            "bufferView" : 5,
            "componentType" : 5126,
            "count" : 368,
            "type" : "VEC3"
        },
        {
            "bufferView" : 6,
            "componentType" : 5126,
            "count" : 368,
            "type" : "VEC2"
        },
        {
            "bufferView" : 7,
            "componentType" : 5126,
            "count" : 368,
            "max" : [
                0.8333926796913147,
                0.9719568490982056,
                0.9496399760246277
            ],
            "min" : [
                -0.8547500967979431,
                -0.9491767883300781,
                -0.8107727766036987
            ],
            "type" : "VEC3"
        },
        {
            "bufferView" : 8,
            "componentType" : 5126,
            "count" : 368,
            "type" : "VEC3"
        },
        {
            "bufferView" : 9,
            "componentType" : 5126,
            "count" : 368,
            "type" : "VEC2"
        },
        {
            "bufferView" : 10,
            "componentType" : 5126,
            "count" : 368,
            "max" : [
                0.8333926796913147,
                0.9719568490982056,
                0.9496399760246277
            ],
            "min" : [
                -0.8547500967979431,
                -0.9491767883300781,
                -0.8107727766036987
            ],
            "type" : "VEC3"
        },
        {
            "bufferView" : 11,
            "componentType" : 5126,
            "count" : 368,
            "type" : "VEC3"
        },
        {
            "bufferView" : 12,
            "componentType" : 5126,
            "count" : 368,
            "type" : "VEC2"
        },
        {
            "bufferView" : 13,
            "componentType" : 5126,
            "count" : 368,
            "max" : [
                0.8333926796913147,
                0.9719568490982056,
                0.9496399760246277
            ],
            "min" : [
                -0.8547500967979431,
                -0.9491767883300781,
                -0.8107727766036987
            ],
            "type" : "VEC3"
        },
        {
            "bufferView" : 14,
            "componentType" : 5126,
            "count" : 368,
            "type" : "VEC3"
        },
        {
            "bufferView" : 15,
            "componentType" : 5126,
            "count" : 368,
            "type" : "VEC2"
        },
        {
            "bufferView" : 16,
            "componentType" : 5126,
            "count" : 368,
            "max" : [
                0.8333926796913147,
                0.9719568490982056,
                0.9496399760246277
            ],
            "min" : [
                -0.8547500967979431,
                -0.9491767883300781,
                -0.8107727766036987
            ],
            "type" : "VEC3"
        },
        {
            "bufferView" : 17,
            "componentType" : 5126,
            "count" : 368,
            "type" : "VEC3"
        },
        {
            "bufferView" : 18,
            "componentType" : 5126,
            "count" : 368,
            "type" : "VEC2"
        },
        {
            "bufferView" : 19,
            "componentType" : 5126,
            "count" : 368,
            "max" : [
                0.8333926796913147,
                0.9719568490982056,
                0.9496399760246277
            ],
            "min" : [
                -0.8547500967979431,
                -0.9491767883300781,
                -0.8107727766036987
            ],
            "type" : "VEC3"
        },
        {
            "bufferView" : 20,
            "componentType" : 5126,
            "count" : 368,
            "type" : "VEC3"
        },
        {
            "bufferView" : 21,
            "componentType" : 5126,
            "count" : 368,
            "type" : "VEC2"
        }
    ],
    "bufferViews" : [
        {
            "buffer" : 0,
            "byteLength" : 4416,
            "byteOffset" : 0
        },
        {
            "buffer" : 0,
            "byteLength" : 4416,
            "byteOffset" : 4416
        },
        {
            "buffer" : 0,
            "byteLength" : 2944,
            "byteOffset" : 8832
        },
        {
            "buffer" : 0,
            "byteLength" : 864,
            "byteOffset" : 11776
        },
        {
            "buffer" : 0,
            "byteLength" : 4416,
            "byteOffset" : 12640
        },
        {
            "buffer" : 0,
            "byteLength" : 4416,
            "byteOffset" : 17056
        },
        {
            "buffer" : 0,
            "byteLength" : 2944,
            "byteOffset" : 21472
        },
        {
            "buffer" : 0,
            "byteLength" : 4416,
            "byteOffset" : 24416
        },
        {
            "buffer" : 0,
            "byteLength" : 4416,
            "byteOffset" : 28832
        },
        {
            "buffer" : 0,
            "byteLength" : 2944,
            "byteOffset" : 33248
        },
        {
            "buffer" : 0,
            "byteLength" : 4416,
            "byteOffset" : 36192
        },
        {
            "buffer" : 0,
            "byteLength" : 4416,
            "byteOffset" : 40608
        },
        {
            "buffer" : 0,
            "byteLength" : 2944,
            "byteOffset" : 45024
        },
        {
            "buffer" : 0,
            "byteLength" : 4416,
            "byteOffset" : 47968
        },
        {
            "buffer" : 0,
            "byteLength" : 4416,
            "byteOffset" : 52384
        },
        {
            "buffer" : 0,
            "byteLength" : 2944,
            "byteOffset" : 56800
        },
        {
            "buffer" : 0,
            "byteLength" : 4416,
            "byteOffset" : 59744
        },
        {
            "buffer" : 0,
            "byteLength" : 4416,
            "byteOffset" : 64160
        },
        {
            "buffer" : 0,
            "byteLength" : 2944,
            "byteOffset" : 68576
        },
        {
            "buffer" : 0,
            "byteLength" : 4416,
            "byteOffset" : 71520
        },
        {
            "buffer" : 0,
            "byteLength" : 4416,
            "byteOffset" : 75936
        },
        {
            "buffer" : 0,
            "byteLength" : 2944,
            "byteOffset" : 80352
        }
    ],
    "buffers" : [
        {
            "byteLength" : 83296,
            "uri" : "data:application/octet-stream;base64,"
        }
    ]
}
