{
    "asset" : {
        "generator" : "Khronos glTF Blender I/O v1.4.40",
        "version" : "2.0"
    },
    "scene" : 0,
    "scenes" : [
        {
            "name" : "Scene",
            "nodes" : [
                0,
                1,
                2,
                3,
                4,
                5,
                6,
                7,
                8,
                9
            ]
        }
    ],
    "nodes" : [
        {
            "mesh" : 0,
            "name" : "Cube"
        },
        {
            "name" : "Light",
            "rotation" : [
                0.16907575726509094,
                0.7558803558349609,
                -0.27217137813568115,
                0.570947527885437
            ],
            "translation" : [
                4.076245307922363,
                5.903861999511719,
                -1.0054539442062378
            ]
        },
        {
            "name" : "Camera",
            "rotation" : [
                0.483536034822464,
                0.33687159419059753,
                -0.20870360732078552,
                0.7804827094078064
            ],
            "translation" : [
                7.358891487121582,
                4.958309173583984,
                6.925790786743164
            ]
        },
        {
            "mesh" : 1,
            "name" : "Icosphere",
            "scale" : [
                0.569604754447937,
                0.569604754447937,
                0.569604754447937
            ],
            "translation" : [
                0.8404030799865723,
                2.341599464416504,
                1.079580307006836
            ]
        },
        {
            "mesh" : 2,
            "name" : "Icosphere.001",
            "rotation" : [
                0.6898464560508728,
                0.36196279525756836,
                -0.49399879574775696,
                0.38608288764953613
            ],
            "scale" : [
                -0.6243897080421448,
                -0.6243897080421448,
                -0.6243895292282104
            ],
            "translation" : [
                -1.0044739246368408,
                2.960521697998047,
                1.1622285842895508
            ]
        },
        {
            "mesh" : 3,
            "name" : "Icosphere.002",
            "rotation" : [
                0.7220547199249268,
                0.18793191015720367,
                0.0598272867500782,
                -0.6631284952163696
            ],
            "scale" : [
                0.3722118139266968,
                0.3722118139266968,
                0.3722118139266968
            ],
            "translation" : [
                0.06969690322875977,
                2.542513370513916,
                -0.8406071066856384
            ]
        },
        {
            "mesh" : 4,
            "name" : "Icosphere.003",
            "rotation" : [
                -0.22416600584983826,
                0.8992834091186523,
                -0.29261985421180725,
                0.23539870977401733
            ],
            "scale" : [
                0.6457054018974304,
                0.6457054018974304,
                0.6457053422927856
            ],
            "translation" : [
                -0.5935183167457581,
                2.8985352516174316,
                -0.5430537462234497
            ]
        },
        {
            "mesh" : 5,
            "name" : "Icosphere.005",
            "rotation" : [
                -0.6432110667228699,
                0.17610211670398712,
                0.7154278755187988,
                0.20839989185333252
            ],
            "scale" : [
                0.6145504713058472,
                0.6145504713058472,
                0.6145504713058472
            ],
            "translation" : [
                0.22303806245326996,
                2.9379870891571045,
                0.7466821670532227
            ]
        },
        {
            "mesh" : 6,
            "name" : "Icosphere.006",
            "rotation" : [
                0.09717342257499695,
                0.6505560278892517,
                0.22789540886878967,
                0.7179121375083923
            ],
            "scale" : [
                0.39843425154685974,
                0.39843425154685974,
                0.3984340727329254
            ],
            "translation" : [
                -0.8253993391990662,
                2.3600847721099854,
                0.3488365411758423
            ]
        },
        {
            "mesh" : 7,
            "name" : "Icosphere.007",
            "rotation" : [
                -0.29274213314056396,
                0.6173318028450012,
                0.5019418597221375,
                0.5303375124931335
            ],
            "scale" : [
                0.6223249435424805,
                0.6223248839378357,
                0.6223249435424805
            ],
            "translation" : [
                -1.7587230205535889,
                2.5337448120117188,
                0.3879563808441162
            ]
        }
    ],
    "materials" : [
        {
            "doubleSided" : true,
            "name" : "trunk",
            "pbrMetallicRoughness" : {
                "baseColorFactor" : [
                    0.2181539386510849,
                    0.09333661198616028,
                    0.051217541098594666,
                    1
                ],
                "metallicFactor" : 0,
                "roughnessFactor" : 0.5454545021057129
            }
        },
        {
            "doubleSided" : true,
            "name" : "green1",
            "pbrMetallicRoughness" : {
                "baseColorFactor" : [
                    0.04666506499052048,
                    0.3094690144062042,
                    0.13563339412212372,
                    1
                ],
                "metallicFactor" : 0
            }
        },
        {
            "doubleSided" : true,
            "name" : "Material",
            "pbrMetallicRoughness" : {
                "baseColorFactor" : [
                    0.04666506499052048,
                    0.3094690144062042,
                    0.13563339412212372,
                    1
                ],
                "metallicFactor" : 0
            }
        },
        {
            "doubleSided" : true,
            "name" : "green7",
            "pbrMetallicRoughness" : {
                "baseColorFactor" : [
                    0.04666506499052048,
                    0.3094690144062042,
                    0.13563339412212372,
                    1
                ],
                "metallicFactor" : 0,
                "roughnessFactor" : 0.5
            }
        },
        {
            "doubleSided" : true,
            "name" : "green5",
            "pbrMetallicRoughness" : {
                "baseColorFactor" : [
                    0.04666506499052048,
                    0.3094690144062042,
                    0.13563339412212372,
                    1
                ],
                "metallicFactor" : 0
            }
        },
        {
            "doubleSided" : true,
            "name" : "green2",
            "pbrMetallicRoughness" : {
                "baseColorFactor" : [
                    0.04666506499052048,
                    0.3094690144062042,
                    0.13563339412212372,
                    1
                ],
                "metallicFactor" : 0
            }
        },
        {
            "doubleSided" : true,
            "name" : "green6",
            "pbrMetallicRoughness" : {
                "baseColorFactor" : [
                    0.04666506499052048,
                    0.3094690144062042,
                    0.13563339412212372,
                    1
                ],
                "metallicFactor" : 0
            }
        },
        {
            "doubleSided" : true,
            "name" : "green3",
            "pbrMetallicRoughness" : {
                "baseColorFactor" : [
                    0.04666506499052048,
                    0.3094690144062042,
                    0.13563339412212372,
                    1
                ],
                "metallicFactor" : 0
            }
        }
    ],
    "meshes" : [
        {
            "name" : "Cube",
            "primitives" : [
                {
                    "attributes" : {
                        "POSITION" : 0,
                        "NORMAL" : 1
                    },
                    "indices" : 2,
                    "material" : 0
                }
            ]
        },
        {
            "name" : "Icosphere.001",
            "primitives" : [
                {
                    "attributes" : {
                        "POSITION" : 3,
                        "NORMAL" : 4,
                        "TEXCOORD_0" : 5
                    },
                    "indices" : 6,
                    "material" : 1
                }
            ]
        },
        {
            "name" : "Icosphere.002",
            "primitives" : [
                {
                    "attributes" : {
                        "POSITION" : 7,
                        "NORMAL" : 8,
                        "TEXCOORD_0" : 9
                    },
                    "indices" : 6,
                    "material" : 2
                }
            ]
        },
        {
            "name" : "Icosphere.003",
            "primitives" : [
                {
                    "attributes" : {
                        "POSITION" : 10,
                        "NORMAL" : 11,
                        "TEXCOORD_0" : 12
                    },
                    "indices" : 6,
                    "material" : 3
                }
            ]
        },
        {
            "name" : "Icosphere.004",
            "primitives" : [
                {
                    "attributes" : {
                        "POSITION" : 13,
                        "NORMAL" : 14,
                        "TEXCOORD_0" : 15
                    },
                    "indices" : 6,
                    "material" : 4
                }
            ]
        },
        {
            "name" : "Icosphere.006",
            "primitives" : [
                {
                    "attributes" : {
                        "POSITION" : 16,
                        "NORMAL" : 17,
                        "TEXCOORD_0" : 18
                    },
                    "indices" : 6,
                    "material" : 5
                }
            ]
        },
        {
            "name" : "Icosphere.007",
            "primitives" : [
                {
                    "attributes" : {
                        "POSITION" : 19,
                        "NORMAL" : 20,
                        "TEXCOORD_0" : 21
                    },
                    "indices" : 6,
                    "material" : 6
                }
            ]
        },
        {
            "name" : "Icosphere.009",
            "primitives" : [
                {
                    "attributes" : {
                        "POSITION" : 22,
                        "NORMAL" : 23,
                        "TEXCOORD_0" : 24
                    },
                    "indices" : 6,
                    "material" : 7
                }
            ]
        }
    ],
    "accessors" : [
        {
            "bufferView" : 0,
            "componentType" : 5126,
            "count" : 1866,
            "max" : [
                0.8964428305625916,
                2.974919080734253,
                1.1734331846237183
            ],
            "min" : [
                -1.7739676237106323,
                -0.009460194036364555,
                -0.8613208532333374
            ],
            "type" : "VEC3"
        },
        {
            "bufferView" : 1,
            "componentType" : 5126,
            "count" : 1866,
            "type" : "VEC3"
        },
        {
            "bufferView" : 2,
            "componentType" : 5123,
            "count" : 2790,
            "type" : "SCALAR"
        },
        {
            "bufferView" : 3,
            "componentType" : 5126,
            "count" : 60,
            "max" : [
                0.8944249749183655,
                1,
                0.8506399989128113
            ],
            "min" : [
                -0.8944249749183655,
                -1,
                -0.8506399989128113
            ],
            "type" : "VEC3"
        },
        {
            "bufferView" : 4,
            "componentType" : 5126,
            "count" : 60,
            "type" : "VEC3"
        },
        {
            "bufferView" : 5,
            "componentType" : 5126,
            "count" : 60,
            "type" : "VEC2"
        },
        {
            "bufferView" : 6,
            "componentType" : 5123,
            "count" : 60,
            "type" : "SCALAR"
        },
        {
            "bufferView" : 7,
            "componentType" : 5126,
            "count" : 60,
            "max" : [
                0.8944249749183655,
                1,
                0.8506399989128113
            ],
            "min" : [
                -0.8944249749183655,
                -1,
                -0.8506399989128113
            ],
            "type" : "VEC3"
        },
        {
            "bufferView" : 8,
            "componentType" : 5126,
            "count" : 60,
            "type" : "VEC3"
        },
        {
            "bufferView" : 9,
            "componentType" : 5126,
            "count" : 60,
            "type" : "VEC2"
        },
        {
            "bufferView" : 10,
            "componentType" : 5126,
            "count" : 60,
            "max" : [
                0.8944249749183655,
                1,
                0.8506399989128113
            ],
            "min" : [
                -0.8944249749183655,
                -1,
                -0.8506399989128113
            ],
            "type" : "VEC3"
        },
        {
            "bufferView" : 11,
            "componentType" : 5126,
            "count" : 60,
            "type" : "VEC3"
        },
        {
            "bufferView" : 12,
            "componentType" : 5126,
            "count" : 60,
            "type" : "VEC2"
        },
        {
            "bufferView" : 13,
            "componentType" : 5126,
            "count" : 60,
            "max" : [
                0.8944249749183655,
                1,
                0.8506399989128113
            ],
            "min" : [
                -0.8944249749183655,
                -1,
                -0.8506399989128113
            ],
            "type" : "VEC3"
        },
        {
            "bufferView" : 14,
            "componentType" : 5126,
            "count" : 60,
            "type" : "VEC3"
        },
        {
            "bufferView" : 15,
            "componentType" : 5126,
            "count" : 60,
            "type" : "VEC2"
        },
        {
            "bufferView" : 16,
            "componentType" : 5126,
            "count" : 60,
            "max" : [
                0.8944249749183655,
                1,
                0.8506399989128113
            ],
            "min" : [
                -0.8944249749183655,
                -1,
                -0.8506399989128113
            ],
            "type" : "VEC3"
        },
        {
            "bufferView" : 17,
            "componentType" : 5126,
            "count" : 60,
            "type" : "VEC3"
        },
        {
            "bufferView" : 18,
            "componentType" : 5126,
            "count" : 60,
            "type" : "VEC2"
        },
        {
            "bufferView" : 19,
            "componentType" : 5126,
            "count" : 60,
            "max" : [
                0.8944249749183655,
                1,
                0.8506399989128113
            ],
            "min" : [
                -0.8944249749183655,
                -1,
                -0.8506399989128113
            ],
            "type" : "VEC3"
        },
        {
            "bufferView" : 20,
            "componentType" : 5126,
            "count" : 60,
            "type" : "VEC3"
        },
        {
            "bufferView" : 21,
            "componentType" : 5126,
            "count" : 60,
            "type" : "VEC2"
        },
        {
            "bufferView" : 22,
            "componentType" : 5126,
            "count" : 60,
            "max" : [
                0.8944249749183655,
                1,
                0.8506399989128113
            ],
            "min" : [
                -0.8944249749183655,
                -1,
                -0.8506399989128113
            ],
            "type" : "VEC3"
        },
        {
            "bufferView" : 23,
            "componentType" : 5126,
            "count" : 60,
            "type" : "VEC3"
        },
        {
            "bufferView" : 24,
            "componentType" : 5126,
            "count" : 60,
            "type" : "VEC2"
        }
    ],
    "bufferViews" : [
        {
            "buffer" : 0,
            "byteLength" : 22392,
            "byteOffset" : 0
        },
        {
            "buffer" : 0,
            "byteLength" : 22392,
            "byteOffset" : 22392
        },
        {
            "buffer" : 0,
            "byteLength" : 5580,
            "byteOffset" : 44784
        },
        {
            "buffer" : 0,
            "byteLength" : 720,
            "byteOffset" : 50364
        },
        {
            "buffer" : 0,
            "byteLength" : 720,
            "byteOffset" : 51084
        },
        {
            "buffer" : 0,
            "byteLength" : 480,
            "byteOffset" : 51804
        },
        {
            "buffer" : 0,
            "byteLength" : 120,
            "byteOffset" : 52284
        },
        {
            "buffer" : 0,
            "byteLength" : 720,
            "byteOffset" : 52404
        },
        {
            "buffer" : 0,
            "byteLength" : 720,
            "byteOffset" : 53124
        },
        {
            "buffer" : 0,
            "byteLength" : 480,
            "byteOffset" : 53844
        },
        {
            "buffer" : 0,
            "byteLength" : 720,
            "byteOffset" : 54324
        },
        {
            "buffer" : 0,
            "byteLength" : 720,
            "byteOffset" : 55044
        },
        {
            "buffer" : 0,
            "byteLength" : 480,
            "byteOffset" : 55764
        },
        {
            "buffer" : 0,
            "byteLength" : 720,
            "byteOffset" : 56244
        },
        {
            "buffer" : 0,
            "byteLength" : 720,
            "byteOffset" : 56964
        },
        {
            "buffer" : 0,
            "byteLength" : 480,
            "byteOffset" : 57684
        },
        {
            "buffer" : 0,
            "byteLength" : 720,
            "byteOffset" : 58164
        },
        {
            "buffer" : 0,
            "byteLength" : 720,
            "byteOffset" : 58884
        },
        {
            "buffer" : 0,
            "byteLength" : 480,
            "byteOffset" : 59604
        },
        {
            "buffer" : 0,
            "byteLength" : 720,
            "byteOffset" : 60084
        },
        {
            "buffer" : 0,
            "byteLength" : 720,
            "byteOffset" : 60804
        },
        {
            "buffer" : 0,
            "byteLength" : 480,
            "byteOffset" : 61524
        },
        {
            "buffer" : 0,
            "byteLength" : 720,
            "byteOffset" : 62004
        },
        {
            "buffer" : 0,
            "byteLength" : 720,
            "byteOffset" : 62724
        },
        {
            "buffer" : 0,
            "byteLength" : 480,
            "byteOffset" : 63444
        }
    ],
    "buffers" : [
        {
            "byteLength" : 63924,
            "uri" : "data:application/octet-stream;base64,"
        }
    ]
}
