{
    "asset" : {
        "generator" : "Khronos glTF Blender I/O v1.2.75",
        "version" : "2.0"
    },
    "scene" : 0,
    "scenes" : [
        {
            "name" : "Scene",
            "nodes" : [
                0,
                1,
                2,
                3,
                4,
                5,
                6,
                7,
                8,
                9
            ]
        }
    ],
    "nodes" : [
        {
            "name" : "Cube"
        },
        {
            "name" : "Light",
            "rotation" : [
                0.16907575726509094,
                0.7558803558349609,
                -0.27217137813568115,
                0.570947527885437
            ],
            "translation" : [
                4.076245307922363,
                5.903861999511719,
                -1.0054539442062378
            ]
        },
        {
            "name" : "Camera",
            "rotation" : [
                0.483536034822464,
                0.33687159419059753,
                -0.20870360732078552,
                0.7804827094078064
            ],
            "translation" : [
                7.358891487121582,
                4.958309173583984,
                6.925790786743164
            ]
        },
        {
            "mesh" : 0,
            "name" : "Icosphere",
            "scale" : [
                0.569604754447937,
                0.569604754447937,
                0.569604754447937
            ],
            "translation" : [
                0.8404030799865723,
                2.341599464416504,
                1.079580307006836
            ]
        },
        {
            "mesh" : 1,
            "name" : "Icosphere.001",
            "rotation" : [
                0.6898464560508728,
                0.36196279525756836,
                -0.49399879574775696,
                0.38608288764953613
            ],
            "scale" : [
                -0.6243897080421448,
                -0.6243897080421448,
                -0.6243895292282104
            ],
            "translation" : [
                -1.0044739246368408,
                2.960521697998047,
                1.1622285842895508
            ]
        },
        {
            "mesh" : 2,
            "name" : "Icosphere.002",
            "rotation" : [
                0.722054660320282,
                0.1879318803548813,
                0.059827279299497604,
                -0.6631284356117249
            ],
            "scale" : [
                0.3722118139266968,
                0.3722118139266968,
                0.3722118139266968
            ],
            "translation" : [
                0.06969690322875977,
                2.542513370513916,
                -0.8406071066856384
            ]
        },
        {
            "mesh" : 3,
            "name" : "Icosphere.003",
            "rotation" : [
                -0.22416600584983826,
                0.8992834091186523,
                -0.29261985421180725,
                0.23539870977401733
            ],
            "scale" : [
                0.6457054018974304,
                0.6457054018974304,
                0.6457053422927856
            ],
            "translation" : [
                -0.5935183167457581,
                2.8985352516174316,
                -0.5430537462234497
            ]
        },
        {
            "mesh" : 4,
            "name" : "Icosphere.005",
            "rotation" : [
                -0.6432110667228699,
                0.17610211670398712,
                0.7154278755187988,
                0.20839989185333252
            ],
            "scale" : [
                0.6145504713058472,
                0.6145504713058472,
                0.6145504713058472
            ],
            "translation" : [
                0.22303806245326996,
                2.9379870891571045,
                0.7466821670532227
            ]
        },
        {
            "mesh" : 5,
            "name" : "Icosphere.006",
            "rotation" : [
                0.09717342257499695,
                0.6505560278892517,
                0.22789540886878967,
                0.7179121375083923
            ],
            "scale" : [
                0.39843425154685974,
                0.39843425154685974,
                0.3984340727329254
            ],
            "translation" : [
                -0.8253993391990662,
                2.3600847721099854,
                0.3488365411758423
            ]
        },
        {
            "mesh" : 6,
            "name" : "Icosphere.007",
            "rotation" : [
                -0.29274213314056396,
                0.6173318028450012,
                0.5019418597221375,
                0.5303375124931335
            ],
            "scale" : [
                0.6223249435424805,
                0.6223248839378357,
                0.6223249435424805
            ],
            "translation" : [
                -1.7587230205535889,
                2.5337448120117188,
                0.3879563808441162
            ]
        }
    ],
    "materials" : [
        {
            "doubleSided" : true,
            "emissiveFactor" : [
                0,
                0,
                0
            ],
            "name" : "green1",
            "pbrMetallicRoughness" : {
                "baseColorFactor" : [
                    0.04666506499052048,
                    0.3094690144062042,
                    0.13563339412212372,
                    1
                ],
                "metallicFactor" : 0,
                "roughnessFactor" : 1
            }
        },
        {
            "doubleSided" : true,
            "emissiveFactor" : [
                0,
                0,
                0
            ],
            "name" : "Material",
            "pbrMetallicRoughness" : {
                "baseColorFactor" : [
                    0.04666506499052048,
                    0.3094690144062042,
                    0.13563339412212372,
                    1
                ],
                "metallicFactor" : 0,
                "roughnessFactor" : 1
            }
        },
        {
            "doubleSided" : true,
            "emissiveFactor" : [
                0,
                0,
                0
            ],
            "name" : "green7",
            "pbrMetallicRoughness" : {
                "baseColorFactor" : [
                    0.04666506499052048,
                    0.3094690144062042,
                    0.13563339412212372,
                    1
                ],
                "metallicFactor" : 0,
                "roughnessFactor" : 0.5
            }
        },
        {
            "doubleSided" : true,
            "emissiveFactor" : [
                0,
                0,
                0
            ],
            "name" : "green5",
            "pbrMetallicRoughness" : {
                "baseColorFactor" : [
                    0.04666506499052048,
                    0.3094690144062042,
                    0.13563339412212372,
                    1
                ],
                "metallicFactor" : 0,
                "roughnessFactor" : 1
            }
        },
        {
            "doubleSided" : true,
            "emissiveFactor" : [
                0,
                0,
                0
            ],
            "name" : "green2",
            "pbrMetallicRoughness" : {
                "baseColorFactor" : [
                    0.04666506499052048,
                    0.3094690144062042,
                    0.13563339412212372,
                    1
                ],
                "metallicFactor" : 0,
                "roughnessFactor" : 1
            }
        },
        {
            "doubleSided" : true,
            "emissiveFactor" : [
                0,
                0,
                0
            ],
            "name" : "green6",
            "pbrMetallicRoughness" : {
                "baseColorFactor" : [
                    0.04666506499052048,
                    0.3094690144062042,
                    0.13563339412212372,
                    1
                ],
                "metallicFactor" : 0,
                "roughnessFactor" : 1
            }
        },
        {
            "doubleSided" : true,
            "emissiveFactor" : [
                0,
                0,
                0
            ],
            "name" : "green3",
            "pbrMetallicRoughness" : {
                "baseColorFactor" : [
                    0.04666506499052048,
                    0.3094690144062042,
                    0.13563339412212372,
                    1
                ],
                "metallicFactor" : 0,
                "roughnessFactor" : 1
            }
        }
    ],
    "meshes" : [
        {
            "name" : "Icosphere.001",
            "primitives" : [
                {
                    "attributes" : {
                        "POSITION" : 0,
                        "NORMAL" : 1,
                        "TEXCOORD_0" : 2
                    },
                    "indices" : 3,
                    "material" : 0
                }
            ]
        },
        {
            "name" : "Icosphere.002",
            "primitives" : [
                {
                    "attributes" : {
                        "POSITION" : 4,
                        "NORMAL" : 5,
                        "TEXCOORD_0" : 6
                    },
                    "indices" : 3,
                    "material" : 1
                }
            ]
        },
        {
            "name" : "Icosphere.003",
            "primitives" : [
                {
                    "attributes" : {
                        "POSITION" : 7,
                        "NORMAL" : 8,
                        "TEXCOORD_0" : 9
                    },
                    "indices" : 3,
                    "material" : 2
                }
            ]
        },
        {
            "name" : "Icosphere.004",
            "primitives" : [
                {
                    "attributes" : {
                        "POSITION" : 10,
                        "NORMAL" : 11,
                        "TEXCOORD_0" : 12
                    },
                    "indices" : 3,
                    "material" : 3
                }
            ]
        },
        {
            "name" : "Icosphere.006",
            "primitives" : [
                {
                    "attributes" : {
                        "POSITION" : 13,
                        "NORMAL" : 14,
                        "TEXCOORD_0" : 15
                    },
                    "indices" : 3,
                    "material" : 4
                }
            ]
        },
        {
            "name" : "Icosphere.007",
            "primitives" : [
                {
                    "attributes" : {
                        "POSITION" : 16,
                        "NORMAL" : 17,
                        "TEXCOORD_0" : 18
                    },
                    "indices" : 3,
                    "material" : 5
                }
            ]
        },
        {
            "name" : "Icosphere.009",
            "primitives" : [
                {
                    "attributes" : {
                        "POSITION" : 19,
                        "NORMAL" : 20,
                        "TEXCOORD_0" : 21
                    },
                    "indices" : 3,
                    "material" : 6
                }
            ]
        }
    ],
    "accessors" : [
        {
            "bufferView" : 0,
            "componentType" : 5126,
            "count" : 60,
            "max" : [
                0.8944249749183655,
                1,
                0.8506399989128113
            ],
            "min" : [
                -0.8944249749183655,
                -1,
                -0.8506399989128113
            ],
            "type" : "VEC3"
        },
        {
            "bufferView" : 1,
            "componentType" : 5126,
            "count" : 60,
            "type" : "VEC3"
        },
        {
            "bufferView" : 2,
            "componentType" : 5126,
            "count" : 60,
            "type" : "VEC2"
        },
        {
            "bufferView" : 3,
            "componentType" : 5123,
            "count" : 60,
            "type" : "SCALAR"
        },
        {
            "bufferView" : 4,
            "componentType" : 5126,
            "count" : 60,
            "max" : [
                0.8944249749183655,
                1,
                0.8506399989128113
            ],
            "min" : [
                -0.8944249749183655,
                -1,
                -0.8506399989128113
            ],
            "type" : "VEC3"
        },
        {
            "bufferView" : 5,
            "componentType" : 5126,
            "count" : 60,
            "type" : "VEC3"
        },
        {
            "bufferView" : 6,
            "componentType" : 5126,
            "count" : 60,
            "type" : "VEC2"
        },
        {
            "bufferView" : 7,
            "componentType" : 5126,
            "count" : 60,
            "max" : [
                0.8944249749183655,
                1,
                0.8506399989128113
            ],
            "min" : [
                -0.8944249749183655,
                -1,
                -0.8506399989128113
            ],
            "type" : "VEC3"
        },
        {
            "bufferView" : 8,
            "componentType" : 5126,
            "count" : 60,
            "type" : "VEC3"
        },
        {
            "bufferView" : 9,
            "componentType" : 5126,
            "count" : 60,
            "type" : "VEC2"
        },
        {
            "bufferView" : 10,
            "componentType" : 5126,
            "count" : 60,
            "max" : [
                0.8944249749183655,
                1,
                0.8506399989128113
            ],
            "min" : [
                -0.8944249749183655,
                -1,
                -0.8506399989128113
            ],
            "type" : "VEC3"
        },
        {
            "bufferView" : 11,
            "componentType" : 5126,
            "count" : 60,
            "type" : "VEC3"
        },
        {
            "bufferView" : 12,
            "componentType" : 5126,
            "count" : 60,
            "type" : "VEC2"
        },
        {
            "bufferView" : 13,
            "componentType" : 5126,
            "count" : 60,
            "max" : [
                0.8944249749183655,
                1,
                0.8506399989128113
            ],
            "min" : [
                -0.8944249749183655,
                -1,
                -0.8506399989128113
            ],
            "type" : "VEC3"
        },
        {
            "bufferView" : 14,
            "componentType" : 5126,
            "count" : 60,
            "type" : "VEC3"
        },
        {
            "bufferView" : 15,
            "componentType" : 5126,
            "count" : 60,
            "type" : "VEC2"
        },
        {
            "bufferView" : 16,
            "componentType" : 5126,
            "count" : 60,
            "max" : [
                0.8944249749183655,
                1,
                0.8506399989128113
            ],
            "min" : [
                -0.8944249749183655,
                -1,
                -0.8506399989128113
            ],
            "type" : "VEC3"
        },
        {
            "bufferView" : 17,
            "componentType" : 5126,
            "count" : 60,
            "type" : "VEC3"
        },
        {
            "bufferView" : 18,
            "componentType" : 5126,
            "count" : 60,
            "type" : "VEC2"
        },
        {
            "bufferView" : 19,
            "componentType" : 5126,
            "count" : 60,
            "max" : [
                0.8944249749183655,
                1,
                0.8506399989128113
            ],
            "min" : [
                -0.8944249749183655,
                -1,
                -0.8506399989128113
            ],
            "type" : "VEC3"
        },
        {
            "bufferView" : 20,
            "componentType" : 5126,
            "count" : 60,
            "type" : "VEC3"
        },
        {
            "bufferView" : 21,
            "componentType" : 5126,
            "count" : 60,
            "type" : "VEC2"
        }
    ],
    "bufferViews" : [
        {
            "buffer" : 0,
            "byteLength" : 720,
            "byteOffset" : 0
        },
        {
            "buffer" : 0,
            "byteLength" : 720,
            "byteOffset" : 720
        },
        {
            "buffer" : 0,
            "byteLength" : 480,
            "byteOffset" : 1440
        },
        {
            "buffer" : 0,
            "byteLength" : 120,
            "byteOffset" : 1920
        },
        {
            "buffer" : 0,
            "byteLength" : 720,
            "byteOffset" : 2040
        },
        {
            "buffer" : 0,
            "byteLength" : 720,
            "byteOffset" : 2760
        },
        {
            "buffer" : 0,
            "byteLength" : 480,
            "byteOffset" : 3480
        },
        {
            "buffer" : 0,
            "byteLength" : 720,
            "byteOffset" : 3960
        },
        {
            "buffer" : 0,
            "byteLength" : 720,
            "byteOffset" : 4680
        },
        {
            "buffer" : 0,
            "byteLength" : 480,
            "byteOffset" : 5400
        },
        {
            "buffer" : 0,
            "byteLength" : 720,
            "byteOffset" : 5880
        },
        {
            "buffer" : 0,
            "byteLength" : 720,
            "byteOffset" : 6600
        },
        {
            "buffer" : 0,
            "byteLength" : 480,
            "byteOffset" : 7320
        },
        {
            "buffer" : 0,
            "byteLength" : 720,
            "byteOffset" : 7800
        },
        {
            "buffer" : 0,
            "byteLength" : 720,
            "byteOffset" : 8520
        },
        {
            "buffer" : 0,
            "byteLength" : 480,
            "byteOffset" : 9240
        },
        {
            "buffer" : 0,
            "byteLength" : 720,
            "byteOffset" : 9720
        },
        {
            "buffer" : 0,
            "byteLength" : 720,
            "byteOffset" : 10440
        },
        {
            "buffer" : 0,
            "byteLength" : 480,
            "byteOffset" : 11160
        },
        {
            "buffer" : 0,
            "byteLength" : 720,
            "byteOffset" : 11640
        },
        {
            "buffer" : 0,
            "byteLength" : 720,
            "byteOffset" : 12360
        },
        {
            "buffer" : 0,
            "byteLength" : 480,
            "byteOffset" : 13080
        }
    ],
    "buffers" : [
        {
            "byteLength" : 13560,
            "uri" : "data:application/octet-stream;base64,"
        }
    ]
}
