{
    "asset" : {
        "generator" : "Khronos glTF Blender I/O v1.3.48",
        "version" : "2.0"
    },
    "scene" : 0,
    "scenes" : [
        {
            "name" : "Scene",
            "nodes" : [
                0,
                1,
                2,
                3,
                4,
                5,
                6,
                14
            ]
        }
    ],
    "nodes" : [
        {
            "name" : "Light",
            "rotation" : [
                0.16907575726509094,
                0.7558803558349609,
                -0.27217137813568115,
                0.570947527885437
            ],
            "translation" : [
                4.978213310241699,
                5.505793571472168,
                7.03912878036499
            ]
        },
        {
            "name" : "Camera",
            "rotation" : [
                0.483536034822464,
                0.33687159419059753,
                -0.20870360732078552,
                0.7804827094078064
            ],
            "translation" : [
                7.358891487121582,
                6.852658748626709,
                7.266410827636719
            ]
        },
        {
            "name" : "Empty",
            "rotation" : [
                0.5,
                0.5,
                -0.5,
                0.4999999701976776
            ]
        },
        {
            "mesh" : 0,
            "name" : "Sphere.001",
            "scale" : [
                0.06674259901046753,
                0.06674259901046753,
                0.06674259901046753
            ],
            "translation" : [
                0.3389856517314911,
                2.9190447330474854,
                2.3391129970550537
            ]
        },
        {
            "mesh" : 1,
            "name" : "Sphere.002",
            "rotation" : [
                0.1956929713487625,
                0.10628271102905273,
                0.8662464618682861,
                0.4472418427467346
            ],
            "scale" : [
                -0.042268648743629456,
                -0.0374315120279789,
                0.29285120964050293
            ],
            "translation" : [
                0.5365872383117676,
                1.762418270111084,
                2.6745269298553467
            ]
        },
        {
            "mesh" : 2,
            "name" : "Sphere.003",
            "rotation" : [
                0.11732406914234161,
                -0.1892797201871872,
                -0.3968580663204193,
                0.8904560208320618
            ],
            "scale" : [
                -0.042268648743629456,
                -0.0374315120279789,
                0.29285120964050293
            ],
            "translation" : [
                -0.534923255443573,
                1.762418270111084,
                2.6745269298553467
            ]
        },
        {
            "mesh" : 3,
            "name" : "Sphere.004",
            "scale" : [
                0.06674259901046753,
                0.06674259901046753,
                0.06674259901046753
            ],
            "translation" : [
                -0.3532743752002716,
                2.9190447330474854,
                2.3391129970550537
            ]
        },
        {
            "name" : "Bone.004",
            "rotation" : [
                0.06498075276613235,
                0.0015287002315744758,
                0.0032515276689082384,
                0.9978801012039185
            ],
            "scale" : [
                0.9999998211860657,
                0.9999998211860657,
                0.9999999403953552
            ],
            "translation" : [
                -3.5225172778652336e-10,
                0.46486425399780273,
                -2.003388344107293e-09
            ]
        },
        {
            "children" : [
                7
            ],
            "name" : "Bone.003",
            "rotation" : [
                0.0444357730448246,
                -0.002078918507322669,
                -0.009670323692262173,
                0.9989632964134216
            ],
            "scale" : [
                1.0000001192092896,
                1,
                1.0000001192092896
            ],
            "translation" : [
                -1.9013562946312845e-10,
                0.7927589416503906,
                1.6726086471408053e-07
            ]
        },
        {
            "children" : [
                8
            ],
            "name" : "Bone.002",
            "rotation" : [
                -0.03863763436675072,
                3.6636795819333656e-09,
                0.00015004003944341093,
                0.9992533922195435
            ],
            "scale" : [
                1,
                1.0000001192092896,
                1.0000001192092896
            ],
            "translation" : [
                6.893969284327284e-10,
                0.740127682685852,
                -3.289097705305721e-08
            ]
        },
        {
            "children" : [
                9
            ],
            "name" : "Bone.001",
            "rotation" : [
                -0.4901988208293915,
                -0.005504451226443052,
                -0.007607028353959322,
                0.8715600967407227
            ],
            "scale" : [
                1.0000001192092896,
                1.0000001192092896,
                1
            ],
            "translation" : [
                4.656612873077393e-10,
                0.8147721290588379,
                4.413595888763666e-08
            ]
        },
        {
            "children" : [
                10
            ],
            "name" : "Bone",
            "rotation" : [
                -0.0026950978208333254,
                0.5968360304832458,
                0.8023085594177246,
                -0.008973415940999985
            ],
            "scale" : [
                1.0000001192092896,
                1,
                0.9999997615814209
            ],
            "translation" : [
                6.328621515727662e-10,
                0.9754267334938049,
                -1.1414977407753213e-08
            ]
        },
        {
            "name" : "Bone.006",
            "rotation" : [
                -0.21601565182209015,
                -0.21601565182209015,
                -0.6733032464981079,
                0.6733032464981079
            ],
            "translation" : [
                0.445203959941864,
                -0.3513248562812805,
                -0.5192725658416748
            ]
        },
        {
            "mesh" : 4,
            "name" : "Plane",
            "skin" : 0
        },
        {
            "children" : [
                13,
                11,
                12
            ],
            "name" : "Slurf",
            "translation" : [
                0,
                2.2680985927581787,
                1.3631181716918945
            ]
        }
    ],
    "materials" : [
        {
            "doubleSided" : true,
            "emissiveFactor" : [
                0,
                0,
                0
            ],
            "name" : "Material.002",
            "pbrMetallicRoughness" : {
                "baseColorFactor" : [
                    0,
                    0,
                    0,
                    1
                ],
                "metallicFactor" : 0,
                "roughnessFactor" : 0.5
            }
        },
        {
            "doubleSided" : true,
            "emissiveFactor" : [
                0,
                0,
                0
            ],
            "name" : "Material.004",
            "pbrMetallicRoughness" : {
                "baseColorFactor" : [
                    1,
                    1,
                    1,
                    1
                ],
                "metallicFactor" : 0,
                "roughnessFactor" : 0.5
            }
        },
        {
            "doubleSided" : true,
            "emissiveFactor" : [
                0,
                0,
                0
            ],
            "name" : "Material.001",
            "pbrMetallicRoughness" : {
                "baseColorFactor" : [
                    1,
                    1,
                    1,
                    1
                ],
                "metallicFactor" : 0,
                "roughnessFactor" : 0.5
            }
        },
        {
            "doubleSided" : true,
            "emissiveFactor" : [
                0,
                0,
                0
            ],
            "name" : "Material.003",
            "pbrMetallicRoughness" : {
                "baseColorFactor" : [
                    0,
                    0,
                    0,
                    1
                ],
                "metallicFactor" : 0,
                "roughnessFactor" : 0.5
            }
        },
        {
            "doubleSided" : true,
            "emissiveFactor" : [
                0,
                0,
                0
            ],
            "name" : "body color",
            "pbrMetallicRoughness" : {
                "baseColorFactor" : [
                    0.40197789669036865,
                    0.4019777774810791,
                    0.4019778072834015,
                    1
                ],
                "metallicFactor" : 0,
                "roughnessFactor" : 0.5
            }
        }
    ],
    "meshes" : [
        {
            "name" : "Sphere.001",
            "primitives" : [
                {
                    "attributes" : {
                        "POSITION" : 0,
                        "NORMAL" : 1,
                        "TEXCOORD_0" : 2
                    },
                    "indices" : 3,
                    "material" : 0
                }
            ]
        },
        {
            "name" : "Sphere.002",
            "primitives" : [
                {
                    "attributes" : {
                        "POSITION" : 4,
                        "NORMAL" : 5,
                        "TEXCOORD_0" : 6
                    },
                    "indices" : 7,
                    "material" : 1
                }
            ]
        },
        {
            "name" : "Sphere.005",
            "primitives" : [
                {
                    "attributes" : {
                        "POSITION" : 8,
                        "NORMAL" : 9,
                        "TEXCOORD_0" : 10
                    },
                    "indices" : 7,
                    "material" : 2
                }
            ]
        },
        {
            "name" : "Sphere.006",
            "primitives" : [
                {
                    "attributes" : {
                        "POSITION" : 11,
                        "NORMAL" : 12,
                        "TEXCOORD_0" : 13
                    },
                    "indices" : 3,
                    "material" : 3
                }
            ]
        },
        {
            "name" : "Plane",
            "primitives" : [
                {
                    "attributes" : {
                        "POSITION" : 14,
                        "NORMAL" : 15,
                        "TEXCOORD_0" : 16,
                        "JOINTS_0" : 17,
                        "WEIGHTS_0" : 18
                    },
                    "indices" : 19,
                    "material" : 4
                }
            ]
        }
    ],
    "skins" : [
        {
            "inverseBindMatrices" : 20,
            "joints" : [
                11,
                10,
                9,
                8,
                7,
                12
            ],
            "name" : "Slurf"
        }
    ],
    "accessors" : [
        {
            "bufferView" : 0,
            "componentType" : 5126,
            "count" : 1984,
            "max" : [
                1.000000238418579,
                1,
                1.0000003576278687
            ],
            "min" : [
                -0.9999998211860657,
                -1,
                -1
            ],
            "type" : "VEC3"
        },
        {
            "bufferView" : 1,
            "componentType" : 5126,
            "count" : 1984,
            "type" : "VEC3"
        },
        {
            "bufferView" : 2,
            "componentType" : 5126,
            "count" : 1984,
            "type" : "VEC2"
        },
        {
            "bufferView" : 3,
            "componentType" : 5123,
            "count" : 2880,
            "type" : "SCALAR"
        },
        {
            "bufferView" : 4,
            "componentType" : 5126,
            "count" : 1984,
            "max" : [
                1.000000238418579,
                1,
                1.0000003576278687
            ],
            "min" : [
                -0.9999998211860657,
                -1,
                -1
            ],
            "type" : "VEC3"
        },
        {
            "bufferView" : 5,
            "componentType" : 5126,
            "count" : 1984,
            "type" : "VEC3"
        },
        {
            "bufferView" : 6,
            "componentType" : 5126,
            "count" : 1984,
            "type" : "VEC2"
        },
        {
            "bufferView" : 7,
            "componentType" : 5123,
            "count" : 2880,
            "type" : "SCALAR"
        },
        {
            "bufferView" : 8,
            "componentType" : 5126,
            "count" : 1984,
            "max" : [
                1.000000238418579,
                1,
                1.0000003576278687
            ],
            "min" : [
                -0.9999998211860657,
                -1,
                -1
            ],
            "type" : "VEC3"
        },
        {
            "bufferView" : 9,
            "componentType" : 5126,
            "count" : 1984,
            "type" : "VEC3"
        },
        {
            "bufferView" : 10,
            "componentType" : 5126,
            "count" : 1984,
            "type" : "VEC2"
        },
        {
            "bufferView" : 11,
            "componentType" : 5126,
            "count" : 1984,
            "max" : [
                1.000000238418579,
                1,
                1.0000003576278687
            ],
            "min" : [
                -0.9999998211860657,
                -1,
                -1
            ],
            "type" : "VEC3"
        },
        {
            "bufferView" : 12,
            "componentType" : 5126,
            "count" : 1984,
            "type" : "VEC3"
        },
        {
            "bufferView" : 13,
            "componentType" : 5126,
            "count" : 1984,
            "type" : "VEC2"
        },
        {
            "bufferView" : 14,
            "componentType" : 5126,
            "count" : 1414,
            "max" : [
                1.984088659286499,
                3.6724348068237305,
                2.9280335903167725
            ],
            "min" : [
                0,
                -0.00048100948333740234,
                -2.0995752811431885
            ],
            "type" : "VEC3"
        },
        {
            "bufferView" : 15,
            "componentType" : 5126,
            "count" : 1414,
            "type" : "VEC3"
        },
        {
            "bufferView" : 16,
            "componentType" : 5126,
            "count" : 1414,
            "type" : "VEC2"
        },
        {
            "bufferView" : 17,
            "componentType" : 5123,
            "count" : 1414,
            "type" : "VEC4"
        },
        {
            "bufferView" : 18,
            "componentType" : 5126,
            "count" : 1414,
            "type" : "VEC4"
        },
        {
            "bufferView" : 19,
            "componentType" : 5123,
            "count" : 2124,
            "type" : "SCALAR"
        },
        {
            "bufferView" : 20,
            "componentType" : 5126,
            "count" : 6,
            "type" : "MAT4"
        }
    ],
    "bufferViews" : [
        {
            "buffer" : 0,
            "byteLength" : 23808,
            "byteOffset" : 0
        },
        {
            "buffer" : 0,
            "byteLength" : 23808,
            "byteOffset" : 23808
        },
        {
            "buffer" : 0,
            "byteLength" : 15872,
            "byteOffset" : 47616
        },
        {
            "buffer" : 0,
            "byteLength" : 5760,
            "byteOffset" : 63488
        },
        {
            "buffer" : 0,
            "byteLength" : 23808,
            "byteOffset" : 69248
        },
        {
            "buffer" : 0,
            "byteLength" : 23808,
            "byteOffset" : 93056
        },
        {
            "buffer" : 0,
            "byteLength" : 15872,
            "byteOffset" : 116864
        },
        {
            "buffer" : 0,
            "byteLength" : 5760,
            "byteOffset" : 132736
        },
        {
            "buffer" : 0,
            "byteLength" : 23808,
            "byteOffset" : 138496
        },
        {
            "buffer" : 0,
            "byteLength" : 23808,
            "byteOffset" : 162304
        },
        {
            "buffer" : 0,
            "byteLength" : 15872,
            "byteOffset" : 186112
        },
        {
            "buffer" : 0,
            "byteLength" : 23808,
            "byteOffset" : 201984
        },
        {
            "buffer" : 0,
            "byteLength" : 23808,
            "byteOffset" : 225792
        },
        {
            "buffer" : 0,
            "byteLength" : 15872,
            "byteOffset" : 249600
        },
        {
            "buffer" : 0,
            "byteLength" : 16968,
            "byteOffset" : 265472
        },
        {
            "buffer" : 0,
            "byteLength" : 16968,
            "byteOffset" : 282440
        },
        {
            "buffer" : 0,
            "byteLength" : 11312,
            "byteOffset" : 299408
        },
        {
            "buffer" : 0,
            "byteLength" : 11312,
            "byteOffset" : 310720
        },
        {
            "buffer" : 0,
            "byteLength" : 22624,
            "byteOffset" : 322032
        },
        {
            "buffer" : 0,
            "byteLength" : 4248,
            "byteOffset" : 344656
        },
        {
            "buffer" : 0,
            "byteLength" : 384,
            "byteOffset" : 348904
        }
    ],
    "buffers" : [
        {
            "byteLength" : 349288,
            "uri" : "olifart.bin"
        }
    ]
}
